<?xml version="1.0" standalone="no"?>
<!DOCTYPE svg PUBLIC "-//W3C//DTD SVG 20010904//EN"
 "http://www.w3.org/TR/2001/REC-SVG-20010904/DTD/svg10.dtd">
<svg version="1.0" xmlns="http://www.w3.org/2000/svg"
 width="53.000000pt" height="48.000000pt" viewBox="0 0 53.000000 48.000000"
 preserveAspectRatio="xMidYMid meet">

<g transform="translate(0.000000,48.000000) scale(0.100000,-0.100000)"
fill="#000000" stroke="none">
<path d="M20 350 c0 -71 -4 -130 -9 -130 -14 0 -8 -153 7 -158 17 -5 15 -42
-3 -42 -8 0 -15 -4 -15 -10 0 -6 52 -10 135 -10 l135 0 0 63 c0 66 6 81 30 83
8 1 22 5 31 8 14 6 15 -3 11 -74 -3 -53 -1 -80 6 -80 6 0 14 9 17 20 4 11 10
18 15 15 5 -3 7 -12 3 -20 -4 -12 8 -15 71 -15 l76 0 -2 177 -3 178 -26 3
c-32 4 -69 -25 -72 -55 -1 -19 -7 -23 -33 -23 -32 0 -33 -1 -39 -55 -8 -61
-20 -68 -55 -30 -17 18 -27 22 -36 14 -7 -6 -23 -9 -36 -7 -19 3 -23 -2 -26
-29 -2 -25 0 -32 11 -27 7 2 20 -2 27 -11 9 -11 9 -15 1 -15 -7 0 -9 -5 -6
-10 3 -6 -1 -13 -9 -16 -9 -3 -16 -12 -16 -20 0 -7 -12 -21 -28 -31 -15 -10
-30 -21 -33 -26 -3 -5 -24 -7 -45 -5 l-39 3 -3 233 c-2 224 -3 232 -22 232
-19 0 -20 -7 -20 -130z m250 -171 c0 -4 -4 -11 -10 -14 -5 -3 -10 -1 -10 4 0
6 -9 11 -20 11 -11 0 -20 4 -20 8 0 5 14 7 30 4 17 -2 30 -8 30 -13z"/>
<path d="M198 374 c-40 -21 -36 -66 7 -72 16 -2 17 -1 5 7 -8 6 -13 11 -10 12
3 0 14 3 25 5 53 14 60 11 63 -28 2 -21 8 -38 14 -38 5 0 8 6 5 13 -2 6 -1 21
3 32 4 12 2 31 -6 46 -21 42 -58 50 -106 23z"/>
<path d="M230 226 c7 -7 14 -6 21 1 9 9 7 12 -9 10 -14 -1 -18 -5 -12 -11z"/>
<path d="M85 30 c-3 -6 1 -7 9 -4 18 7 21 14 7 14 -6 0 -13 -4 -16 -10z"/>
</g>
</svg>
